<svg xmlns="http://www.w3.org/2000/svg" width="25" height="25" viewBox="0 0 25 25">
  <g id="Group_193" data-name="Group 193" transform="translate(-292 -812.055)">
    <g id="Group_3" data-name="Group 3" transform="translate(292 812.055)">
      <g id="Ellipse_3" data-name="Ellipse 3" transform="translate(0 0)" fill="#fff" stroke="#707070" stroke-width="1">
        <circle cx="12.5" cy="12.5" r="12.5" stroke="none"/>
        <circle cx="12.5" cy="12.5" r="12" fill="none"/>
      </g>
      <g id="Group_2" data-name="Group 2" transform="translate(6.691 3)">
        <g id="Ellipse_1" data-name="Ellipse 1" transform="translate(0.617 10)" fill="#fff" stroke="#707070" stroke-width="1">
          <ellipse cx="5.5" cy="4.074" rx="5.5" ry="4.074" stroke="none"/>
          <ellipse cx="5.5" cy="4.074" rx="5" ry="3.574" fill="none"/>
        </g>
        <g id="Ellipse_2" data-name="Ellipse 2" transform="translate(1.617 0)" fill="#fff" stroke="#707070" stroke-width="1">
          <ellipse cx="4" cy="4.5" rx="4" ry="4.5" stroke="none"/>
          <ellipse cx="4" cy="4.5" rx="3.5" ry="4" fill="none"/>
        </g>
        <g id="Path_1" data-name="Path 1" transform="translate(0 15.26)" fill="#fff">
          <path d="M 9.706714630126953 3.777583837509155 L 1.848894834518433 3.777583837509155 C 1.053974866867065 3.777583837509155 0.5000048279762268 3.3474440574646 0.5000048279762268 2.961403846740723 L 0.5000048279762268 1.316183924674988 C 0.5000048279762268 0.9301439523696899 1.053974866867065 0.5000039339065552 1.848894834518433 0.5000039339065552 L 9.706714630126953 0.5000039339065552 C 10.5016450881958 0.5000039339065552 11.05561447143555 0.9301439523696899 11.05561447143555 1.316183924674988 L 11.05561447143555 2.961403846740723 C 11.05561447143555 3.3474440574646 10.5016450881958 3.777583837509155 9.706714630126953 3.777583837509155 Z" stroke="none"/>
          <path d="M 1.848895072937012 1.000004053115845 C 1.340707778930664 1.000004053115845 1.036499977111816 1.230502367019653 0.999995231628418 1.323447942733765 L 0.999995231628418 2.954139947891235 C 1.036499977111816 3.047085523605347 1.340707778930664 3.277584075927734 1.848895072937012 3.277584075927734 L 9.706714630126953 3.277584075927734 C 10.2149019241333 3.277584075927734 10.51910018920898 3.047085523605347 10.55560493469238 2.954139947891235 L 10.55560493469238 1.323447942733765 C 10.51910018920898 1.230502367019653 10.2149019241333 1.000004053115845 9.706714630126953 1.000004053115845 L 1.848895072937012 1.000004053115845 M 1.848895072937012 3.814697265625e-06 L 9.706714630126953 3.814697265625e-06 C 10.72782516479492 3.814697265625e-06 11.55560493469238 0.5892739295959473 11.55560493469238 1.316184043884277 L 11.55560493469238 2.961403846740723 C 11.55560493469238 3.688313961029053 10.72782516479492 4.277584075927734 9.706714630126953 4.277584075927734 L 1.848895072937012 4.277584075927734 C 0.8277750015258789 4.277584075927734 -4.76837158203125e-06 3.688313961029053 -4.76837158203125e-06 2.961403846740723 L -4.76837158203125e-06 1.316184043884277 C -4.76837158203125e-06 0.5892739295959473 0.8277750015258789 3.814697265625e-06 1.848895072937012 3.814697265625e-06 Z" stroke="none" fill="#fff"/>
        </g>
      </g>
    </g>
  </g>
</svg>
